<svg xmlns="http://www.w3.org/2000/svg" width="1678" height="321" viewBox="0 0 1678 321">
  <defs>
    <style>
      .cls-1 {
        fill: #28e10f;
        fill-rule: evenodd;
      }
    </style>
  </defs>
  <path id="StocKing" class="cls-1" d="M119.971,22.44q-52.883,0-79.981,18.9t-27.1,56.1q0,19.192,8.643,31.787a63.384,63.384,0,0,0,20.361,19.409,231.239,231.239,0,0,0,29.59,13.99q19.775,8.057,24.39,12.6t4.614,9.522q0,5.272-4.76,8.935a18.764,18.764,0,0,1-11.792,3.662q-14.358,0-29.956-9.668A82.763,82.763,0,0,1,27.832,161.6L3.662,236.307q42.919,16.847,102.246,16.846,52.879,0,80.127-18.823t27.246-54.712q0-17.139-6.885-30.03t-20.727-21.167q-13.844-8.274-39.478-18.383-23.291-9.081-28.784-13.33t-5.493-8.35q0-13.184,17.432-13.184,31.345,0,55.517,32.666l24.61-70.458q-41.165-14.942-89.5-14.941h0Zm219.58,50.683V22.733l-127.442,99.9h36.914V177.86q0,34.132,22.339,53.613t55.005,19.483q30.615,0,52-14.063V167.02q-9.084,12.6-21.68,12.6-17.137,0-17.138-19.19V122.635h37.793V73.124H339.551ZM565.063,226.786q26.88-25.341,26.88-65.772,0-40.574-26.88-66.064t-69.8-25.488q-42.627,0-69.434,25.488t-26.807,66.064q0,40.578,27.173,65.845t69.068,25.269Q538.182,252.128,565.063,226.786Zm-55.3-82.178q5.565,5.568,5.566,14.648,0,8.937-5.566,14.5t-14.5,5.567q-8.79,0-14.283-5.567t-5.493-14.5q0-8.933,5.493-14.575t14.283-5.639Q504.2,139.042,509.766,144.608ZM718.213,69.462q-46.582,0-74.268,26.587T616.26,161.893q0,39.26,29,64.746T727.3,252.128a200.862,200.862,0,0,0,56.689-7.764V167.9q-18.6,9.228-45.556,9.229-31.5,0-31.494-16.993,0-7.323,7.251-11.5t20.288-4.174q22.556,0,49.511,12.89V80.008a217.609,217.609,0,0,0-65.771-10.547h0ZM822.656,25.956V249.491h98.877V167.9q48.192,1.614,52,81.592H1080.32q-4.68-77.345-50.39-112.207a103.024,103.024,0,0,0,33.4-43.945q10.7-26.511,10.69-67.383H973.242q0,33.546-13.183,53.174t-38.526,21.534V25.956H822.656ZM1184.47,66.092a25.04,25.04,0,0,0,7.47-18.164,24.555,24.555,0,0,0-7.47-18.018,24.539,24.539,0,0,0-18.01-7.471,25.043,25.043,0,0,0-18.17,7.471,24.315,24.315,0,0,0-7.62,18.018,24.791,24.791,0,0,0,7.62,18.164,24.8,24.8,0,0,0,18.17,7.617A24.3,24.3,0,0,0,1184.47,66.092Zm-36.03,17.139q-28.575,0-46.44-10.108V249.491h90.53V73.124q-17.58,10.107-44.09,10.108h0Zm77.78-10.108V249.491h90.53V130.4q8.2-5.713,16.26-5.713,16.7,0,16.7,21.973V249.491h85.54V139.921q0-33.838-16.48-51.05t-47.38-17.212q-31.8,0-54.64,23.584V73.124h-90.53Zm334.42,0.293q-32.22,0-45.7,2.417a72.437,72.437,0,0,0-24.53,9.009q-11.07,6.592-19.34,21.021t-8.28,34.5q0,30.469,19.41,48.633t52.22,18.164q22.125,0,37.21-9.522a27.355,27.355,0,0,1,.44,4.688q0,22.56-36.62,22.558-39.705,0-72.07-31.494v80.127Q1504.825,299,1567.82,299q48.345,0,71.41-21.021T1662.3,211.7V73.417H1560.64Zm10.99,87.6c-3.13,2.541-7.32,3.809-12.6,3.809q-8.925,0-14.35-5.347t-5.42-14.429q0-22.116,30.32-22.119h2.05v38.086Z"/>
</svg>
